<?xml version="1.0" encoding="utf-8"?>
<!-- Generator: Adobe Illustrator 27.5.0, SVG Export Plug-In . SVG Version: 6.00 Build 0)  -->
<svg version="1.1" id="Layer_1" xmlns="http://www.w3.org/2000/svg" xmlns:xlink="http://www.w3.org/1999/xlink" x="0px" y="0px"
	 viewBox="0 0 84 60" style="enable-background:new 0 0 84 60;" xml:space="preserve">
<style type="text/css">
	.st0{fill:none;}
</style>
<g>
	<polygon class="st0" points="52,48 44,48 44,48 40,48 32,48 32,52 52,52 	"/>
	<rect x="52" y="44" class="st0" width="12" height="4"/>
	<rect x="20" y="44" class="st0" width="12" height="4"/>
	<rect x="20" width="12" height="4"/>
	<rect x="32" y="4" width="8" height="4"/>
	<rect x="12" y="4" width="8" height="4"/>
	<polygon points="8,16 8,48 12,48 12,8 8,8 8,12 0,12 0,14 0,14 0,60 4,60 4,16 	"/>
	<rect x="8" y="52" width="12" height="4"/>
	<rect x="20" y="48" width="12" height="4"/>
	<rect x="20" y="40" width="12" height="4"/>
	<polygon points="40,48 44,48 44,48 52,48 52,44 44,44 44,8 52,8 52,4 44,4 44,8 40,8 40,44 32,44 32,48 	"/>
	<rect x="12" y="44" width="8" height="4"/>
	<rect x="4" y="56" width="4" height="4"/>
	<rect x="52" width="12" height="4"/>
	<polygon points="84,14 84,12 76,12 76,8 72,8 72,48 76,48 76,16 80,16 80,60 84,60 84,14 	"/>
	<rect x="64" y="4" width="8" height="4"/>
	<rect x="64" y="52" width="12" height="4"/>
	<polygon points="52,48 52,52 32,52 32,56 52,56 52,52 64,52 64,48 	"/>
	<rect x="52" y="40" width="12" height="4"/>
	<rect x="64" y="44" width="8" height="4"/>
	<rect x="76" y="56" width="4" height="4"/>
</g>
</svg>
