<?xml version="1.0" encoding="utf-8"?>
<!-- Generator: Adobe Illustrator 27.5.0, SVG Export Plug-In . SVG Version: 6.00 Build 0)  -->
<svg version="1.1" id="Layer_1" xmlns="http://www.w3.org/2000/svg" xmlns:xlink="http://www.w3.org/1999/xlink" x="0px" y="0px"
	 viewBox="0 0 60 60" style="enable-background:new 0 0 60 60;" xml:space="preserve">
<style type="text/css">
	.st0{fill:none;}
	.st1{fill:#F6F6F6;}
</style>
<g>
	<rect x="44" y="12" class="st0" width="4" height="4"/>
	<polygon class="st0" points="36,24 36,20 24,20 24,24 20,24 20,36 24,36 24,40 36,40 36,36 40,36 40,24 	"/>
	<path class="st0" d="M52,8V4H8v4H4v44h4v4h44v-4h4V8H52z M44,36h-4v4h-4v4H24v-4h-4v-4h-4V24h4v-4h4v-4h12v4h4v4h4V36z M52,16h-4v4
		h-4v-4h-4v-4h4V8h4v4h4V16z"/>
	<rect x="8" class="st1" width="44" height="4"/>
	<rect x="8" y="56" class="st1" width="44" height="4"/>
	<rect y="8" class="st1" width="4" height="44"/>
	<rect x="56" y="8" class="st1" width="4" height="44"/>
	<rect x="4" y="4" class="st1" width="4" height="4"/>
	<rect x="24" y="16" class="st1" width="12" height="4"/>
	<rect x="24" y="40" class="st1" width="12" height="4"/>
	<rect x="16" y="24" class="st1" width="4" height="12"/>
	<rect x="20" y="20" class="st1" width="4" height="4"/>
	<rect x="20" y="36" class="st1" width="4" height="4"/>
	<rect x="40" y="24" class="st1" width="4" height="12"/>
	<rect x="36" y="36" class="st1" width="4" height="4"/>
	<rect x="36" y="20" class="st1" width="4" height="4"/>
	<rect x="44" y="8" class="st1" width="4" height="4"/>
	<rect x="40" y="12" class="st1" width="4" height="4"/>
	<rect x="44" y="16" class="st1" width="4" height="4"/>
	<rect x="48" y="12" class="st1" width="4" height="4"/>
	<rect x="4" y="52" class="st1" width="4" height="4"/>
	<rect x="52" y="4" class="st1" width="4" height="4"/>
	<rect x="52" y="52" class="st1" width="4" height="4"/>
</g>
</svg>
