<?xml version="1.0" encoding="utf-8"?>
<!-- Generator: Adobe Illustrator 27.5.0, SVG Export Plug-In . SVG Version: 6.00 Build 0)  -->
<svg version="1.1" id="Layer_1" xmlns="http://www.w3.org/2000/svg" xmlns:xlink="http://www.w3.org/1999/xlink" x="0px" y="0px"
	 viewBox="0 0 176 84" style="enable-background:new 0 0 176 84;" xml:space="preserve">
<style type="text/css">
	.st0{fill:none;}
</style>
<g>
	<path class="st0" d="M160,8h-8V4H12v4H4v36h8v4h124V20v-4h4v4h4v4h4v4h4v4h4v4h4V8z M100.8,36H24v-4h76.8V36z M120,20H24v-4h96V20z
		"/>
	<g>
		<rect x="12" width="140" height="4"/>
	</g>
	<g>
		<rect x="144" y="64" width="4" height="4"/>
	</g>
	<g>
		<rect x="148" y="60" width="4" height="4"/>
	</g>
	<g>
		<rect x="172" y="52" width="4" height="4"/>
	</g>
	<g>
		<rect x="168" y="48" width="4" height="4"/>
	</g>
	<g>
		<rect x="164" y="44" width="4" height="4"/>
	</g>
	<g>
		<rect x="160" y="40" width="4" height="4"/>
	</g>
	<g>
		<rect x="156" y="36" width="4" height="4"/>
	</g>
	<g>
		<rect x="152" y="32" width="4" height="4"/>
	</g>
	<g>
		<rect x="148" y="28" width="4" height="4"/>
	</g>
	<g>
		<rect x="144" y="24" width="4" height="4"/>
	</g>
	<g>
		<polygon points="140,20 140,16 136,16 136,20 136,48 12,48 12,52 136,52 136,72 140,72 144,72 144,68 140,68 140,24 144,24 
			144,20 		"/>
	</g>
	<g>
		<polygon points="156,72 156,80 160,80 160,72 156,72 156,64 152,64 152,72 		"/>
	</g>
	<g>
		<polygon points="168,72 168,80 172,80 172,72 168,72 168,64 164,64 164,72 		"/>
	</g>
	<g>
		<polygon points="160,56 160,64 164,64 164,60 172,60 172,56 164,56 		"/>
	</g>
	<g>
		<rect x="160" y="80" width="8" height="4"/>
	</g>
	<polygon points="164,8 160,8 160,36 160,40 164,40 	"/>
	<rect x="152" y="4" width="8" height="4"/>
	<rect y="8" width="4" height="36"/>
	<rect x="4" y="4" width="8" height="4"/>
	<rect x="4" y="44" width="8" height="4"/>
</g>
<g>
	<rect x="56" y="16" transform="matrix(-1 -4.502011e-11 4.502011e-11 -1 116 36)" width="4" height="4"/>
	<rect x="56" y="32" transform="matrix(-1 -4.502011e-11 4.502011e-11 -1 116 68)" width="4" height="4"/>
	<rect x="52" y="20" transform="matrix(-1 -4.502011e-11 4.502011e-11 -1 108 44)" width="4" height="4"/>
	<rect x="52" y="28" transform="matrix(-1 -4.502011e-11 4.502011e-11 -1 108 60)" width="4" height="4"/>
	<rect x="48" y="24" transform="matrix(-1 -4.502011e-11 4.502011e-11 -1 100 52)" width="4" height="4"/>
	<rect x="104" y="32" width="4" height="4"/>
	<rect x="104" y="16" width="4" height="4"/>
	<rect x="88" y="16" width="4" height="4"/>
	<rect x="84" y="20" width="4" height="4"/>
	<rect x="80" y="24" width="4" height="4"/>
	<rect x="76" y="28" width="4" height="4"/>
	<rect x="72" y="32" width="4" height="4"/>
	<rect x="108" y="28" width="4" height="4"/>
	<rect x="108" y="20" width="4" height="4"/>
	<rect x="112" y="24" width="4" height="4"/>
</g>
</svg>
