<?xml version="1.0" encoding="utf-8"?>
<!-- Generator: Adobe Illustrator 27.5.0, SVG Export Plug-In . SVG Version: 6.00 Build 0)  -->
<svg version="1.1" id="Layer_1" xmlns="http://www.w3.org/2000/svg" xmlns:xlink="http://www.w3.org/1999/xlink" x="0px" y="0px"
	 viewBox="0 0 60 60" style="enable-background:new 0 0 60 60;" xml:space="preserve">
<style type="text/css">
	.st0{fill:none;}
</style>
<g>
	<polygon class="st0" points="52,8 52,4 8,4 8,8 4,8 4,52 8,52 8,56 28,56 28,36 20,36 20,32 28,32 28,20 32,20 32,16 44,16 44,20 
		32,20 32,32 44,32 44,36 32,36 32,56 52,56 52,52 56,52 56,8 	"/>
	<rect x="8" width="44" height="4"/>
	<rect y="8" width="4" height="44"/>
	<rect x="56" y="8" width="4" height="44"/>
	<rect x="4" y="4" width="4" height="4"/>
	<rect x="32" y="16" width="12" height="4"/>
	<polygon points="32,36 44,36 44,32 32,32 32,20 28,20 28,32 20,32 20,36 28,36 28,56 8,56 8,60 52,60 52,56 32,56 	"/>
	<rect x="4" y="52" width="4" height="4"/>
	<rect x="52" y="4" width="4" height="4"/>
	<rect x="52" y="52" width="4" height="4"/>
</g>
</svg>
