<?xml version="1.0" encoding="utf-8"?>
<!-- Generator: Adobe Illustrator 27.5.0, SVG Export Plug-In . SVG Version: 6.00 Build 0)  -->
<svg version="1.1" id="Layer_1" xmlns="http://www.w3.org/2000/svg" xmlns:xlink="http://www.w3.org/1999/xlink" x="0px" y="0px"
	 viewBox="0 0 80.4 70" style="enable-background:new 0 0 80.4 70;" xml:space="preserve">
<style type="text/css">
	.st0{fill:none;}
</style>
<g>
	<path d="M66.95,54.55H31.28c-1.46,0-2.83-0.79-3.56-2.05L9.89,21.61c-0.36-0.62-0.95-0.68-1.19-0.68c-0.24,0-0.83,0.07-1.19,0.68
		L0.18,34.32c-0.24,0.42-0.24,0.95,0,1.37L19.6,69.32c0.24,0.42,0.7,0.68,1.19,0.68h38.83c0.49,0,0.94-0.26,1.19-0.68l7.34-12.71
		c0.36-0.62,0.12-1.16,0-1.37C68.02,55.03,67.67,54.55,66.95,54.55z"/>
	<path d="M13.45,15.45h35.67c0.49,0,0.94-0.26,1.19-0.68l7.34-12.71c0.36-0.62,0.12-1.16,0-1.37C57.52,0.48,57.17,0,56.46,0H20.79
		c-0.49,0-0.94,0.26-1.19,0.68l-7.34,12.71c-0.36,0.62-0.12,1.16,0,1.37C12.38,14.97,12.74,15.45,13.45,15.45z"/>
	<path d="M71.3,18.87c-0.24-0.42-0.7-0.68-1.19-0.68H52.28c-0.49,0-0.94,0.26-1.19,0.68l-7.34,12.71c-0.36,0.62-0.12,1.16,0,1.37
		c0.12,0.21,0.47,0.68,1.19,0.68h14.67c1.46,0,2.83,0.79,3.56,2.05l7.34,12.71c0.36,0.62,0.95,0.68,1.19,0.68
		c0.24,0,0.83-0.07,1.19-0.68l7.34-12.71c0.24-0.42,0.24-0.95,0-1.37L71.3,18.87z"/>
</g>
</svg>
