<?xml version="1.0" encoding="utf-8"?>
<!-- Generator: Adobe Illustrator 27.5.0, SVG Export Plug-In . SVG Version: 6.00 Build 0)  -->
<svg version="1.1" id="Layer_1" xmlns="http://www.w3.org/2000/svg" xmlns:xlink="http://www.w3.org/1999/xlink" x="0px" y="0px"
	 viewBox="0 0 60 48" style="enable-background:new 0 0 60 48;" xml:space="preserve">
<style type="text/css">
	.st0{fill:none;}
</style>
<g>
	<path d="M4,24H0v24h4h4h4V24H8H4z M8,44H4V28h4V44z"/>
	<path d="M20,16h-4v32h4h4h4V16h-4H20z M24,44h-4V20h4V44z"/>
	<path d="M36,8h-4v40h4h4h4V8h-4H36z M40,44h-4V12h4V44z"/>
	<path d="M56,0h-4h-4v48h4h4h4V0H56z M56,44h-4V4h4V44z"/>
</g>
</svg>
