<?xml version="1.0" encoding="utf-8"?>
<!-- Generator: Adobe Illustrator 27.5.0, SVG Export Plug-In . SVG Version: 6.00 Build 0)  -->
<svg version="1.1" id="Layer_1" xmlns="http://www.w3.org/2000/svg" xmlns:xlink="http://www.w3.org/1999/xlink" x="0px" y="0px"
	 viewBox="0 0 56 28" style="enable-background:new 0 0 56 28;" xml:space="preserve">
<style type="text/css">
	.st0{fill:none;}
</style>
<g>
	<rect x="40" y="4" class="st0" width="12" height="8"/>
	<rect y="0" width="4" height="4"/>
	<rect x="4" y="4" width="4" height="4"/>
	<rect x="8" y="8" width="4" height="4"/>
	<rect x="12" y="12" width="4" height="4"/>
	<rect x="8" y="16" width="4" height="4"/>
	<rect x="4" y="20" width="4" height="4"/>
	<rect y="24" width="4" height="4"/>
	<rect x="16" y="8" width="4" height="4"/>
	<rect x="52" y="4" width="4" height="8"/>
	<rect x="20" y="4" width="4" height="4"/>
	<rect x="24" y="0" width="4" height="4"/>
	<polygon points="40,4 52,4 52,0 40,0 40,0 36,0 36,28 40,28 40,16 52,16 52,12 40,12 	"/>
	<rect x="16" y="16" width="4" height="4"/>
	<rect x="20" y="20" width="4" height="4"/>
	<rect x="24" y="24" width="4" height="4"/>
</g>
</svg>
