<?xml version="1.0" encoding="utf-8"?>
<!-- Generator: Adobe Illustrator 27.5.0, SVG Export Plug-In . SVG Version: 6.00 Build 0)  -->
<svg version="1.1" id="Layer_1" xmlns="http://www.w3.org/2000/svg" xmlns:xlink="http://www.w3.org/1999/xlink" x="0px" y="0px"
	 viewBox="0 0 324.43 70" style="enable-background:new 0 0 324.43 70;" xml:space="preserve">
<style type="text/css">
	.st0{fill:none;}
</style>
<g>
	<g>
		<path d="M66.95,54.55H31.28c-1.46,0-2.83-0.79-3.56-2.05L9.89,21.61c-0.36-0.62-0.95-0.68-1.19-0.68c-0.24,0-0.83,0.07-1.19,0.68
			L0.18,34.32c-0.24,0.42-0.24,0.95,0,1.37L19.6,69.32c0.24,0.42,0.7,0.68,1.19,0.68h38.83c0.49,0,0.94-0.26,1.19-0.68l7.34-12.71
			c0.36-0.62,0.12-1.16,0-1.37C68.02,55.03,67.67,54.55,66.95,54.55z"/>
		<path d="M13.45,15.45h35.67c0.49,0,0.94-0.26,1.19-0.68l7.34-12.71c0.36-0.62,0.12-1.16,0-1.37C57.52,0.48,57.17,0,56.46,0H20.79
			c-0.49,0-0.94,0.26-1.19,0.68l-7.34,12.71c-0.36,0.62-0.12,1.16,0,1.37C12.38,14.97,12.74,15.45,13.45,15.45z"/>
		<path d="M71.3,18.87c-0.24-0.42-0.7-0.68-1.19-0.68H52.28c-0.49,0-0.94,0.26-1.19,0.68l-7.34,12.71c-0.36,0.62-0.12,1.16,0,1.37
			c0.12,0.21,0.47,0.68,1.19,0.68h14.67c1.46,0,2.83,0.79,3.56,2.05l7.34,12.71c0.36,0.62,0.95,0.68,1.19,0.68
			c0.24,0,0.83-0.07,1.19-0.68l7.34-12.71c0.24-0.42,0.24-0.95,0-1.37L71.3,18.87z"/>
	</g>
	<g>
		<path d="M118.44,30.03c2.22,0,4.06-0.37,5.55-1.1c1.48-0.73,2.6-1.74,3.34-3c0.75-1.27,1.12-2.72,1.12-4.34
			c0-1.52-0.37-2.86-1.12-4.02c-0.75-1.16-1.88-2.07-3.38-2.72c-0.58-0.25-1.22-0.46-1.92-0.62c0.25-0.12,0.5-0.24,0.72-0.38
			c1.29-0.79,2.24-1.75,2.82-2.9c0.59-1.15,0.88-2.35,0.88-3.6c0-2.3-0.77-4.09-2.32-5.39C122.57,0.65,120.41,0,117.63,0H96.25
			l2.32,14.62l-2.32,15.42H118.44z M119,23.35c-0.67,0.59-1.6,0.88-2.8,0.88h-11.15l1.02-6.77h9.64c1.41,0,2.48,0.31,3.2,0.94
			c0.72,0.63,1.08,1.46,1.08,2.5C120,21.95,119.66,22.76,119,23.35z M117.15,6.59c0.56,0.52,0.84,1.18,0.84,1.98
			c0,0.99-0.33,1.77-0.98,2.34c-0.65,0.57-1.46,0.86-2.42,0.86h-8.55l-0.96-5.97h9.67C115.79,5.81,116.59,6.07,117.15,6.59z"/>
		<polygon points="159.52,30.03 159.52,23.31 140.51,23.31 141.37,18.02 158.2,18.02 158.2,12.01 141.37,12.01 140.51,6.73 
			159.32,6.73 159.32,0 131.61,0 133.89,15.02 131.61,30.03 		"/>
		<polygon points="184.27,30.03 198.25,0 189.48,0 179.66,22.32 169.77,0 160.88,0 174.86,30.03 		"/>
		<polygon points="228.08,30.03 228.08,23.31 209.07,23.31 209.93,18.02 226.76,18.02 226.76,12.01 209.93,12.01 209.07,6.73 
			227.88,6.73 227.88,0 200.17,0 202.45,15.02 200.17,30.03 		"/>
		<path d="M256.71,18.02c1.71-0.8,3.04-1.92,4-3.36c0.96-1.44,1.44-3.11,1.44-5.01c0-1.95-0.48-3.64-1.44-5.07
			c-0.96-1.43-2.3-2.55-4-3.36C255.01,0.41,253,0,250.71,0h-17.82v30.03h8.29V19.22h4.34l8.07,10.81h9.61l-8.63-11.26
			C255.33,18.58,256.05,18.33,256.71,18.02z M241.18,6.17h8.37c1.33,0,2.38,0.3,3.12,0.9c0.75,0.6,1.12,1.46,1.12,2.58
			c0,1.09-0.37,1.95-1.12,2.56c-0.75,0.61-1.79,0.92-3.12,0.92h-8.37V6.17z"/>
		<polygon points="275.22,0 266.93,0 266.93,30.03 293.96,30.03 293.96,22.67 275.22,22.67 		"/>
		<polygon points="324.43,0 315.22,0 306.23,11.48 297.2,0 287.99,0 302.09,17.94 302.09,30.03 310.42,30.03 310.42,17.81 		"/>
		<path d="M114.87,59.67h8.23c-0.09,0.12-0.18,0.24-0.28,0.36c-0.89,1.07-2.09,1.88-3.58,2.42c-1.5,0.55-3.22,0.82-5.17,0.82
			c-2,0-3.74-0.33-5.23-1c-1.48-0.67-2.62-1.67-3.42-3c-0.8-1.33-1.2-2.98-1.2-4.93c0-1.92,0.37-3.53,1.12-4.83
			c0.75-1.29,1.8-2.27,3.16-2.92c1.36-0.65,2.98-0.98,4.85-0.98c1.55,0,2.93,0.19,4.14,0.58c1.21,0.39,2.23,0.95,3.04,1.68
			c0.81,0.73,1.35,1.61,1.62,2.62h8.37c-0.43-2.32-1.38-4.36-2.84-6.13c-1.47-1.76-3.4-3.15-5.81-4.16
			c-2.4-1.01-5.26-1.52-8.57-1.52c-2.48,0-4.77,0.34-6.87,1.02c-2.1,0.68-3.94,1.69-5.53,3.02c-1.59,1.34-2.82,2.98-3.7,4.93
			c-0.88,1.95-1.32,4.18-1.32,6.69c0,2.51,0.43,4.74,1.3,6.69c0.87,1.95,2.08,3.59,3.64,4.93c1.56,1.34,3.37,2.34,5.43,3.02
			c2.06,0.68,4.26,1.02,6.61,1.02c2.46,0,4.61-0.36,6.47-1.08c1.86-0.72,3.4-1.72,4.65-3c0.19-0.2,0.37-0.41,0.54-0.62l0.4,4.06
			h5.89V53.82h-15.94V59.67z"/>
		<path d="M157.4,55.94c0,1.36-0.25,2.54-0.76,3.54c-0.51,1-1.27,1.77-2.28,2.3c-1.02,0.53-2.28,0.8-3.8,0.8
			c-1.5,0-2.76-0.27-3.78-0.8c-1.03-0.53-1.8-1.3-2.32-2.3c-0.52-1-0.78-2.18-0.78-3.54V39.32h-8.29v17.02
			c0,2.75,0.63,5.15,1.9,7.19c1.27,2.04,3.04,3.63,5.33,4.77c2.28,1.13,4.93,1.7,7.95,1.7c3.04,0,5.7-0.57,7.97-1.7
			c2.27-1.13,4.04-2.72,5.31-4.77c1.27-2.04,1.9-4.44,1.9-7.19V39.32h-8.33V55.94z"/>
		<path d="M194.3,40.61c-1.83-0.85-4-1.28-6.51-1.28h-16.86v30.03h8.29v-9.33h8.57c2.51,0,4.68-0.43,6.51-1.28
			c1.83-0.85,3.22-2.06,4.18-3.62c0.96-1.56,1.44-3.37,1.44-5.43c0-2.08-0.48-3.9-1.44-5.47C197.53,42.67,196.13,41.46,194.3,40.61z
			 M190.4,52.4c-0.75,0.65-1.79,0.98-3.12,0.98h-8.05v-7.41h8.05c1.33,0,2.38,0.33,3.12,0.98c0.75,0.65,1.12,1.57,1.12,2.74
			C191.52,50.84,191.14,51.75,190.4,52.4z"/>
		<rect x="203.53" y="39.32" width="8.29" height="30.03"/>
		<polygon points="215.39,46.69 226.84,46.69 226.84,69.36 235.17,69.36 235.17,46.69 246.62,46.69 246.62,39.32 215.39,39.32 		"/>
	</g>
</g>
</svg>
