<?xml version="1.0" encoding="utf-8"?>
<!-- Generator: Adobe Illustrator 27.5.0, SVG Export Plug-In . SVG Version: 6.00 Build 0)  -->
<svg version="1.1" id="Layer_1" xmlns="http://www.w3.org/2000/svg" xmlns:xlink="http://www.w3.org/1999/xlink" x="0px" y="0px"
	 viewBox="0 0 212 56" style="enable-background:new 0 0 212 56;" xml:space="preserve">
<style type="text/css">
	.st0{fill:none;}
</style>
<g>
	<polygon class="st0" points="128,8 128,4 112,4 112,8 108,8 108,12 104,12 104,8 100,8 100,4 84,4 84,8 80,8 80,28 84,28 84,32 
		88,32 88,36 92,36 92,40 96,40 96,44 100,44 100,48 104,48 104,52 108,52 108,48 112,48 112,44 116,44 116,40 120,40 120,36 
		124,36 124,32 128,32 128,28 132,28 132,8 	"/>
	<polygon class="st0" points="52,8 52,4 36,4 36,8 32,8 32,12 28,12 28,8 24,8 24,4 8,4 8,8 4,8 4,28 8,28 8,32 12,32 12,36 16,36 
		16,40 20,40 20,44 24,44 24,48 28,48 28,52 32,52 32,48 36,48 36,44 40,44 40,40 44,40 44,36 48,36 48,32 52,32 52,28 56,28 56,8 	
		"/>
	<polygon class="st0" points="204,8 204,4 188,4 188,8 184,8 184,12 180,12 180,8 176,8 176,4 160,4 160,8 156,8 156,28 160,28 
		160,32 164,32 164,36 168,36 168,40 172,40 172,44 176,44 176,48 180,48 180,52 184,52 184,48 188,48 188,44 192,44 192,40 196,40 
		196,36 200,36 200,32 204,32 204,28 208,28 208,8 	"/>
	<g>
		<rect y="8" width="4" height="20"/>
	</g>
	<g>
		<rect x="8" width="16" height="4"/>
	</g>
	<rect x="4" y="4" width="4" height="4"/>
	<rect x="24" y="4" width="4" height="4"/>
	<rect x="4" y="28" width="4" height="4"/>
	<rect x="8" y="32" width="4" height="4"/>
	<rect x="12" y="36" width="4" height="4"/>
	<rect x="16" y="40" width="4" height="4"/>
	<rect x="20" y="44" width="4" height="4"/>
	<rect x="24" y="48" width="4" height="4"/>
	<g>
		<rect x="56" y="8" width="4" height="20"/>
	</g>
	<g>
		<rect x="36" width="16" height="4"/>
	</g>
	<rect x="52" y="4" width="4" height="4"/>
	<rect x="32" y="4" width="4" height="4"/>
	<rect x="28" y="8" width="4" height="4"/>
	<rect x="52" y="28" width="4" height="4"/>
	<rect x="48" y="32" width="4" height="4"/>
	<rect x="44" y="36" width="4" height="4"/>
	<rect x="40" y="40" width="4" height="4"/>
	<rect x="36" y="44" width="4" height="4"/>
	<rect x="32" y="48" width="4" height="4"/>
	<rect x="28" y="52" width="4" height="4"/>
	<g>
		<rect x="76" y="8" width="4" height="20"/>
	</g>
	<g>
		<rect x="84" width="16" height="4"/>
	</g>
	<rect x="80" y="4" width="4" height="4"/>
	<rect x="100" y="4" width="4" height="4"/>
	<rect x="80" y="28" width="4" height="4"/>
	<rect x="84" y="32" width="4" height="4"/>
	<rect x="88" y="36" width="4" height="4"/>
	<rect x="92" y="40" width="4" height="4"/>
	<rect x="96" y="44" width="4" height="4"/>
	<rect x="100" y="48" width="4" height="4"/>
	<g>
		<rect x="132" y="8" width="4" height="20"/>
	</g>
	<g>
		<rect x="112" width="16" height="4"/>
	</g>
	<rect x="128" y="4" width="4" height="4"/>
	<rect x="108" y="4" width="4" height="4"/>
	<rect x="104" y="8" width="4" height="4"/>
	<rect x="128" y="28" width="4" height="4"/>
	<rect x="124" y="32" width="4" height="4"/>
	<rect x="120" y="36" width="4" height="4"/>
	<rect x="116" y="40" width="4" height="4"/>
	<rect x="112" y="44" width="4" height="4"/>
	<rect x="108" y="48" width="4" height="4"/>
	<rect x="104" y="52" width="4" height="4"/>
	<g>
		<rect x="152" y="8" width="4" height="20"/>
	</g>
	<g>
		<rect x="160" width="16" height="4"/>
	</g>
	<rect x="156" y="4" width="4" height="4"/>
	<rect x="176" y="4" width="4" height="4"/>
	<rect x="156" y="28" width="4" height="4"/>
	<rect x="160" y="32" width="4" height="4"/>
	<rect x="164" y="36" width="4" height="4"/>
	<rect x="168" y="40" width="4" height="4"/>
	<rect x="172" y="44" width="4" height="4"/>
	<rect x="176" y="48" width="4" height="4"/>
	<g>
		<rect x="208" y="8" width="4" height="20"/>
	</g>
	<g>
		<rect x="188" width="16" height="4"/>
	</g>
	<rect x="204" y="4" width="4" height="4"/>
	<rect x="184" y="4" width="4" height="4"/>
	<rect x="180" y="8" width="4" height="4"/>
	<rect x="204" y="28" width="4" height="4"/>
	<rect x="200" y="32" width="4" height="4"/>
	<rect x="196" y="36" width="4" height="4"/>
	<rect x="192" y="40" width="4" height="4"/>
	<rect x="188" y="44" width="4" height="4"/>
	<rect x="184" y="48" width="4" height="4"/>
	<rect x="180" y="52" width="4" height="4"/>
</g>
</svg>
