<?xml version="1.0" encoding="utf-8"?>
<!-- Generator: Adobe Illustrator 27.5.0, SVG Export Plug-In . SVG Version: 6.00 Build 0)  -->
<svg version="1.1" id="Layer_1" xmlns="http://www.w3.org/2000/svg" xmlns:xlink="http://www.w3.org/1999/xlink" x="0px" y="0px"
	 viewBox="0 0 180 91" style="enable-background:new 0 0 180 91;" xml:space="preserve">
<style type="text/css">
	.st0{fill:none;}
</style>
<g>
	<rect x="84" y="51" class="st0" width="12" height="4"/>
	<polygon class="st0" points="128,16 128,12 124,12 124,8 120,8 120,12 116,12 116,16 120,16 120,20 124,20 124,16 	"/>
	<path class="st0" d="M44,63v-8h4V35h-4v-8h-8v-4H16v4H8v8H4v20h4v8h8v4h20v-4H44z M32,39h4v-4h4v4h4v4h-4v-4h-4v4h-4V39z M8,39h4
		v-4h4v4h4v4h-4v-4h-4v4H8V39z M16,59v-4h-4v-4h4v4h20v-4h4v4h-4v4H16z"/>
	<rect x="140" y="39" class="st0" width="4" height="4"/>
	<path class="st0" d="M108,35v-8h-8v-4H80v4h-8v8h-4v20h4v8h8v4h20v-4h8v-8h4V35H108z M76,43v-8h4v8H76z M100,51v4h-4v4H84v-4h-4v-4
		v-4h20V51z M104,43h-4v-8h4V43z"/>
	<rect x="160" y="39" class="st0" width="4" height="4"/>
	<polygon class="st0" points="60,75 60,71 56,71 56,75 52,75 52,79 56,79 56,83 60,83 60,79 64,79 64,75 	"/>
	<polygon class="st0" points="140,35 148,35 152,35 156,35 160,35 168,35 172,35 172,27 164,27 164,23 144,23 144,27 136,27 136,35 
			"/>
	<path class="st0" d="M172,39v4h-4v4h-8v-4h-4v-4h-4v4h-4v4h-8v-4h-4v-4h-4v16h4v8h8v4h20v-4h8v-8h4V39H172z M168,55h-4v4h-20v-4h-4
		v-4h4v4h20v-4h4V55z"/>
	<g>
		<rect x="16" y="19" width="20" height="4"/>
	</g>
	<g>
		<rect y="35" width="4" height="20"/>
	</g>
	<g>
		<rect x="8" y="23" width="8" height="4"/>
	</g>
	<g>
		<rect x="84" y="55" width="12" height="4"/>
	</g>
	<g>
		<rect x="76" y="35" width="4" height="8"/>
	</g>
	<g>
		<rect x="100" y="35" width="4" height="8"/>
	</g>
	<g>
		<rect x="56" y="63" width="4" height="8"/>
	</g>
	<g>
		<rect x="52" y="71" width="4" height="4"/>
	</g>
	<g>
		<rect x="44" y="75" width="8" height="4"/>
	</g>
	<g>
		<rect x="64" y="75" width="8" height="4"/>
	</g>
	<g>
		<rect x="60" y="71" width="4" height="4"/>
	</g>
	<g>
		<rect x="56" y="83" width="4" height="8"/>
	</g>
	<g>
		<rect x="60" y="79" width="4" height="4"/>
	</g>
	<g>
		<rect x="52" y="79" width="4" height="4"/>
	</g>
	<g>
		<rect x="120" width="4" height="8"/>
	</g>
	<g>
		<rect x="116" y="8" width="4" height="4"/>
	</g>
	<g>
		<rect x="108" y="12" width="8" height="4"/>
	</g>
	<g>
		<rect x="128" y="12" width="8" height="4"/>
	</g>
	<g>
		<rect x="124" y="8" width="4" height="4"/>
	</g>
	<g>
		<rect x="120" y="20" width="4" height="8"/>
	</g>
	<g>
		<rect x="124" y="16" width="4" height="4"/>
	</g>
	<g>
		<rect x="116" y="16" width="4" height="4"/>
	</g>
	<g>
		<polygon points="80,51 80,55 84,55 84,51 96,51 96,55 100,55 100,51 100,47 80,47 		"/>
	</g>
	<g>
		<rect x="4" y="27" width="4" height="8"/>
	</g>
	<g>
		<rect x="8" y="63" width="8" height="4"/>
	</g>
	<g>
		<rect x="4" y="55" width="4" height="8"/>
	</g>
	<g>
		<rect x="48" y="35" width="4" height="20"/>
	</g>
	<g>
		<rect x="36" y="23" width="8" height="4"/>
	</g>
	<g>
		<rect x="44" y="27" width="4" height="8"/>
	</g>
	<g>
		<rect x="36" y="63" width="8" height="4"/>
	</g>
	<g>
		<rect x="44" y="55" width="4" height="8"/>
	</g>
	<g>
		<rect x="16" y="67" width="20" height="4"/>
	</g>
	<g>
		<rect x="80" y="19" width="20" height="4"/>
	</g>
	<g>
		<rect x="64" y="35" width="4" height="20"/>
	</g>
	<g>
		<rect x="72" y="23" width="8" height="4"/>
	</g>
	<g>
		<rect x="68" y="27" width="4" height="8"/>
	</g>
	<g>
		<rect x="72" y="63" width="8" height="4"/>
	</g>
	<g>
		<rect x="68" y="55" width="4" height="8"/>
	</g>
	<g>
		<rect x="112" y="35" width="4" height="20"/>
	</g>
	<g>
		<rect x="100" y="23" width="8" height="4"/>
	</g>
	<g>
		<rect x="108" y="27" width="4" height="8"/>
	</g>
	<g>
		<rect x="100" y="63" width="8" height="4"/>
	</g>
	<g>
		<rect x="108" y="55" width="4" height="8"/>
	</g>
	<g>
		<rect x="80" y="67" width="20" height="4"/>
	</g>
	<g>
		<rect x="144" y="19" width="20" height="4"/>
	</g>
	<g>
		<rect x="136" y="23" width="8" height="4"/>
	</g>
	<g>
		<rect x="140" y="51" width="4" height="4"/>
	</g>
	<g>
		<rect x="144" y="55" width="20" height="4"/>
	</g>
	<g>
		<rect x="164" y="51" width="4" height="4"/>
	</g>
	<g>
		<rect x="136" y="63" width="8" height="4"/>
	</g>
	<g>
		<rect x="132" y="55" width="4" height="8"/>
	</g>
	<g>
		<polygon points="176,35 176,27 172,27 172,35 168,35 160,35 156,35 152,35 148,35 140,35 136,35 136,27 132,27 132,35 128,35 
			128,55 132,55 132,39 136,39 136,43 140,43 140,39 144,39 144,43 140,43 140,47 148,47 148,43 152,43 152,39 156,39 156,43 
			160,43 160,39 164,39 164,43 160,43 160,47 168,47 168,43 172,43 172,39 176,39 176,55 180,55 180,35 		"/>
	</g>
	<g>
		<rect x="164" y="23" width="8" height="4"/>
	</g>
	<g>
		<rect x="164" y="63" width="8" height="4"/>
	</g>
	<g>
		<rect x="172" y="55" width="4" height="8"/>
	</g>
	<g>
		<rect x="144" y="67" width="20" height="4"/>
	</g>
	<g>
		<rect x="12" y="51" width="4" height="4"/>
	</g>
	<g>
		<rect x="16" y="55" width="20" height="4"/>
	</g>
	<g>
		<rect x="36" y="51" width="4" height="4"/>
	</g>
	<g>
		<rect x="8" y="39" width="4" height="4"/>
	</g>
	<g>
		<rect x="12" y="35" width="4" height="4"/>
	</g>
	<g>
		<rect x="16" y="39" width="4" height="4"/>
	</g>
	<g>
		<rect x="32" y="39" width="4" height="4"/>
	</g>
	<g>
		<rect x="36" y="35" width="4" height="4"/>
	</g>
	<g>
		<rect x="40" y="39" width="4" height="4"/>
	</g>
</g>
</svg>
