<?xml version="1.0" encoding="utf-8"?>
<!-- Generator: Adobe Illustrator 27.5.0, SVG Export Plug-In . SVG Version: 6.00 Build 0)  -->
<svg version="1.1" id="Layer_1" xmlns="http://www.w3.org/2000/svg" xmlns:xlink="http://www.w3.org/1999/xlink" x="0px" y="0px"
	 viewBox="0 0 76 58" style="enable-background:new 0 0 76 58;" xml:space="preserve">
<style type="text/css">
	.st0{fill:none;}
</style>
<g>
	<polygon class="st0" points="56,6 44,6 44,10 24,10 24,14 8,14 8,18 4,18 4,26 8,26 8,30 24,30 24,34 44,34 44,38 56,38 	"/>
	<rect x="24" y="38" class="st0" width="8" height="16"/>
	<rect y="18" width="4" height="8"/>
	<rect x="24" y="54" width="8" height="4"/>
	<rect x="4" y="14" width="4" height="4"/>
	<rect x="64" y="8" width="4" height="4"/>
	<rect x="64" y="20" width="12" height="4"/>
	<rect x="72" width="4" height="4"/>
	<rect x="68" y="4" width="4" height="4"/>
	<rect x="64" y="32" width="4" height="4"/>
	<rect x="68" y="36" width="4" height="4"/>
	<rect x="72" y="40" width="4" height="4"/>
	<rect x="4" y="26" width="4" height="4"/>
	<rect x="8" y="10" width="16" height="4"/>
	<rect x="24" y="6" width="20" height="4"/>
	<polygon points="44,6 56,6 56,38 44,38 44,42 60,42 60,38 60,6 60,2 44,2 	"/>
	<polygon points="24,34 24,30 8,30 8,34 20,34 20,54 24,54 24,38 32,38 32,54 36,54 36,38 44,38 44,34 	"/>
</g>
</svg>
