<?xml version="1.0" encoding="utf-8"?>
<!-- Generator: Adobe Illustrator 27.5.0, SVG Export Plug-In . SVG Version: 6.00 Build 0)  -->
<svg version="1.1" id="Layer_1" xmlns="http://www.w3.org/2000/svg" xmlns:xlink="http://www.w3.org/1999/xlink" x="0px" y="0px"
	 viewBox="0 0 72 64" style="enable-background:new 0 0 72 64;" xml:space="preserve">
<style type="text/css">
	.st0{fill:none;}
</style>
<g>
	<polygon points="32,36 4,36 4,40 32,40 32,60 36,60 36,40 32,40 	"/>
	<rect x="4" y="60" width="28" height="4"/>
	<rect y="40" width="4" height="20"/>
	<polygon points="50,18 22,18 22,22 50,22 50,42 54,42 54,22 50,22 	"/>
	<rect x="40" y="42" width="10" height="4"/>
	<rect x="18" y="22" width="4" height="10"/>
	<rect x="58" y="24" width="10" height="4"/>
	<rect x="36" y="4" width="4" height="10"/>
	<polygon points="68,4 68,0 40,0 40,4 68,4 68,24 72,24 72,4 	"/>
</g>
</svg>
