<?xml version="1.0" encoding="utf-8"?>
<!-- Generator: Adobe Illustrator 27.5.0, SVG Export Plug-In . SVG Version: 6.00 Build 0)  -->
<svg version="1.1" id="Layer_1" xmlns="http://www.w3.org/2000/svg" xmlns:xlink="http://www.w3.org/1999/xlink" x="0px" y="0px"
	 viewBox="0 0 68 60" style="enable-background:new 0 0 68 60;" xml:space="preserve">
<style type="text/css">
	.st0{fill:none;}
</style>
<g>
	<polygon class="st0" points="28,56 40,56 40,52 40,48 28,48 28,52 	"/>
	<path class="st0" d="M4,4v40h60V4H4z M60,12v24v4H8v-4V12V8h52V12z"/>
	<path class="st0" d="M56,36V12H12v24H56z M50,30h4v4h-4V30z M20,14h4v4h-4V14z M20,20h4v4h-4V20z M14,14h4v4h-4V14z M14,20h4v4h-4
		V20z M14,26h4v4h-4V26z"/>
	<rect x="4" width="60" height="4"/>
	<path d="M4,48h20v4v4h-8v4h36v-4h-8v-4v-4h20v-4H4V48z M40,48v4v4H28v-4v-4H40z"/>
	<rect y="4" width="4" height="40"/>
	<path d="M8,12v24v4h52v-4V12V8H8V12z M56,12v24H12V12H56z"/>
	<rect x="14" y="14" width="4" height="4"/>
	<rect x="14" y="20" width="4" height="4"/>
	<rect x="20" y="14" width="4" height="4"/>
	<rect x="20" y="20" width="4" height="4"/>
	<rect x="14" y="26" width="4" height="4"/>
	<rect x="50" y="30" width="4" height="4"/>
	<rect x="64" y="4" width="4" height="40"/>
</g>
</svg>
