<?xml version="1.0" encoding="utf-8"?>
<!-- Generator: Adobe Illustrator 27.5.0, SVG Export Plug-In . SVG Version: 6.00 Build 0)  -->
<svg version="1.1" id="Layer_1" xmlns="http://www.w3.org/2000/svg" xmlns:xlink="http://www.w3.org/1999/xlink" x="0px" y="0px"
	 viewBox="0 0 60 60" style="enable-background:new 0 0 60 60;" xml:space="preserve">
<style type="text/css">
	.st0{fill:none;}
	.st1{fill:#F6F6F6;}
</style>
<g>
	<rect x="8" class="st1" width="44" height="4"/>
	<rect x="8" y="56" class="st1" width="44" height="4"/>
	<rect y="8" class="st1" width="4" height="44"/>
	<rect x="56" y="8" class="st1" width="4" height="44"/>
	<rect x="4" y="4" class="st1" width="4" height="4"/>
	<rect x="16" y="16" class="st1" width="4" height="4"/>
	<rect x="28" y="28" class="st1" width="4" height="4"/>
	<rect x="40" y="28" class="st1" width="4" height="20"/>
	<rect x="32" y="24" class="st1" width="8" height="4"/>
	<rect x="16" y="24" class="st1" width="4" height="24"/>
	<rect x="24" y="24" class="st1" width="4" height="24"/>
	<rect x="4" y="52" class="st1" width="4" height="4"/>
	<rect x="52" y="4" class="st1" width="4" height="4"/>
	<rect x="52" y="52" class="st1" width="4" height="4"/>
	<path class="st0" d="M52,8V4H8v4H4v44h4v4h44v-4h4V8H52z M20,48h-4V24h4V48z M20,20h-4v-4h4V20z M28,48h-4V24h4V48z M44,48h-4V28
		h-8v4h-4v-4h4v-4h8v4h4V48z"/>
</g>
</svg>
