<?xml version="1.0" encoding="utf-8"?>
<!-- Generator: Adobe Illustrator 27.5.0, SVG Export Plug-In . SVG Version: 6.00 Build 0)  -->
<svg version="1.1" id="Layer_1" xmlns="http://www.w3.org/2000/svg" xmlns:xlink="http://www.w3.org/1999/xlink" x="0px" y="0px"
	 viewBox="0 0 60 56" style="enable-background:new 0 0 60 56;" xml:space="preserve">
<style type="text/css">
	.st0{fill:none;}
</style>
<g>
	<polygon class="st0" points="52,8 52,4 36,4 36,8 32,8 32,12 28,12 28,8 24,8 24,4 8,4 8,8 4,8 4,28 8,28 8,32 12,32 12,36 16,36 
		16,40 20,40 20,44 24,44 24,48 28,48 28,52 32,52 32,48 36,48 36,44 40,44 40,40 44,40 44,36 48,36 48,32 52,32 52,28 56,28 56,8 	
		"/>
	<g>
		<rect y="8" width="4" height="20"/>
	</g>
	<g>
		<rect x="8" width="16" height="4"/>
	</g>
	<rect x="4" y="4" width="4" height="4"/>
	<rect x="24" y="4" width="4" height="4"/>
	<rect x="4" y="28" width="4" height="4"/>
	<rect x="8" y="32" width="4" height="4"/>
	<rect x="12" y="36" width="4" height="4"/>
	<rect x="16" y="40" width="4" height="4"/>
	<rect x="20" y="44" width="4" height="4"/>
	<rect x="24" y="48" width="4" height="4"/>
	<g>
		<rect x="56" y="8" width="4" height="20"/>
	</g>
	<g>
		<rect x="36" width="16" height="4"/>
	</g>
	<rect x="52" y="4" width="4" height="4"/>
	<rect x="32" y="4" width="4" height="4"/>
	<rect x="28" y="8" width="4" height="4"/>
	<rect x="52" y="28" width="4" height="4"/>
	<rect x="48" y="32" width="4" height="4"/>
	<rect x="44" y="36" width="4" height="4"/>
	<rect x="40" y="40" width="4" height="4"/>
	<rect x="36" y="44" width="4" height="4"/>
	<rect x="32" y="48" width="4" height="4"/>
	<rect x="28" y="52" width="4" height="4"/>
</g>
</svg>
